# xmcd
# Copyright (C) 1995-1998 Ti Kan
#
# Track frame offsets:
#       150
#       21876
#       47481
#       68269
#       90439
#       110621
#
# Disc length: 1724 seconds
#
# Revision: 0
# Processed by: cddbd v1.5.2PL0 Copyright (c) Steve Scherf et al.
# Submitted via: CD-Transfer v1.0
#
DISCID=3c06ba06
DTITLE=Estaverde - Desolado
DYEAR=05
DGENRE=
TTITLE0=Ne Me Réveille-Moi Pas
TTITLE1=La Triste Reine
TTITLE2=L'étrange Façon Des Gens De L'ouest
TTITLE3=On A Su
TTITLE4=Enfance
TTITLE5=Les Marie-Louise
EXTD=
EXTT0=
EXTT1=
EXTT2=
EXTT3=
EXTT4=
EXTT5=
PLAYORDER=
